<mxfile host="app.diagrams.net" modified="2021-04-30T09:15:07.069Z" agent="5.0 (Windows NT 10.0; Win64; x64) AppleWebKit/537.36 (KHTML, like Gecko) Chrome/90.0.4430.85 Safari/537.36" etag="28_8SWlzFg_g5hdP7AYZ" version="14.6.3" type="github">
  <diagram id="2rhrJlg8VxJwap3iuX5Z" name="第 1 页">
    <mxGraphModel dx="1108" dy="624" grid="0" gridSize="10" guides="1" tooltips="1" connect="1" arrows="1" fold="1" page="0" pageScale="1" pageWidth="827" pageHeight="1169" math="0" shadow="0">
      <root>
        <mxCell id="0" />
        <mxCell id="1" parent="0" />
        <mxCell id="kZivcypazWpZHnETLAVk-34" value="" style="rounded=0;whiteSpace=wrap;html=1;sketch=0;dashed=1;" vertex="1" parent="1">
          <mxGeometry x="40" y="840" width="592" height="209" as="geometry" />
        </mxCell>
        <mxCell id="kZivcypazWpZHnETLAVk-11" value="" style="rounded=0;whiteSpace=wrap;html=1;dashed=1;" vertex="1" parent="1">
          <mxGeometry x="40" y="260" width="600" height="280" as="geometry" />
        </mxCell>
        <mxCell id="kZivcypazWpZHnETLAVk-13" style="edgeStyle=orthogonalEdgeStyle;rounded=0;orthogonalLoop=1;jettySize=auto;html=1;exitX=0.5;exitY=1;exitDx=0;exitDy=0;entryX=0.5;entryY=0;entryDx=0;entryDy=0;" edge="1" parent="1" source="kZivcypazWpZHnETLAVk-1" target="kZivcypazWpZHnETLAVk-2">
          <mxGeometry relative="1" as="geometry" />
        </mxCell>
        <mxCell id="kZivcypazWpZHnETLAVk-1" value="哨兵" style="rounded=0;whiteSpace=wrap;html=1;fillColor=#d80073;strokeColor=#A50040;fontColor=#ffffff;" vertex="1" parent="1">
          <mxGeometry x="280" y="150" width="120" height="60" as="geometry" />
        </mxCell>
        <mxCell id="kZivcypazWpZHnETLAVk-2" value="主节点" style="rounded=0;whiteSpace=wrap;html=1;fillColor=#1ba1e2;strokeColor=#006EAF;fontColor=#ffffff;" vertex="1" parent="1">
          <mxGeometry x="280" y="280" width="120" height="60" as="geometry" />
        </mxCell>
        <mxCell id="kZivcypazWpZHnETLAVk-4" value="从节点" style="rounded=0;whiteSpace=wrap;html=1;fillColor=#1ba1e2;strokeColor=#006EAF;fontColor=#ffffff;" vertex="1" parent="1">
          <mxGeometry x="280" y="440" width="120" height="60" as="geometry" />
        </mxCell>
        <mxCell id="kZivcypazWpZHnETLAVk-6" value="从节点" style="rounded=0;whiteSpace=wrap;html=1;fillColor=#1ba1e2;strokeColor=#006EAF;fontColor=#ffffff;" vertex="1" parent="1">
          <mxGeometry x="77" y="440" width="120" height="60" as="geometry" />
        </mxCell>
        <mxCell id="kZivcypazWpZHnETLAVk-7" value="从节点" style="rounded=0;whiteSpace=wrap;html=1;fillColor=#1ba1e2;strokeColor=#006EAF;fontColor=#ffffff;" vertex="1" parent="1">
          <mxGeometry x="480" y="440" width="120" height="60" as="geometry" />
        </mxCell>
        <mxCell id="kZivcypazWpZHnETLAVk-8" value="" style="endArrow=classic;html=1;exitX=0.5;exitY=1;exitDx=0;exitDy=0;entryX=0.5;entryY=0;entryDx=0;entryDy=0;" edge="1" parent="1" source="kZivcypazWpZHnETLAVk-2" target="kZivcypazWpZHnETLAVk-4">
          <mxGeometry width="50" height="50" relative="1" as="geometry">
            <mxPoint x="410" y="410" as="sourcePoint" />
            <mxPoint x="460" y="360" as="targetPoint" />
          </mxGeometry>
        </mxCell>
        <mxCell id="kZivcypazWpZHnETLAVk-9" value="" style="endArrow=classic;startArrow=classic;html=1;exitX=0.45;exitY=-0.033;exitDx=0;exitDy=0;exitPerimeter=0;entryX=0.567;entryY=0.017;entryDx=0;entryDy=0;entryPerimeter=0;" edge="1" parent="1" source="kZivcypazWpZHnETLAVk-6" target="kZivcypazWpZHnETLAVk-7">
          <mxGeometry width="50" height="50" relative="1" as="geometry">
            <mxPoint x="410" y="410" as="sourcePoint" />
            <mxPoint x="460" y="360" as="targetPoint" />
            <Array as="points">
              <mxPoint x="130" y="390" />
              <mxPoint x="340" y="390" />
              <mxPoint x="548" y="390" />
            </Array>
          </mxGeometry>
        </mxCell>
        <mxCell id="kZivcypazWpZHnETLAVk-14" value="&lt;font style=&quot;font-size: 16px&quot;&gt;复制&lt;/font&gt;" style="text;html=1;strokeColor=none;fillColor=none;align=center;verticalAlign=middle;whiteSpace=wrap;rounded=0;dashed=1;" vertex="1" parent="1">
          <mxGeometry x="414" y="360" width="90" height="30" as="geometry" />
        </mxCell>
        <mxCell id="kZivcypazWpZHnETLAVk-15" value="&lt;font style=&quot;font-size: 16px&quot;&gt;复制&lt;/font&gt;" style="text;html=1;strokeColor=none;fillColor=none;align=center;verticalAlign=middle;whiteSpace=wrap;rounded=0;dashed=1;" vertex="1" parent="1">
          <mxGeometry x="170" y="360" width="90" height="30" as="geometry" />
        </mxCell>
        <mxCell id="kZivcypazWpZHnETLAVk-16" value="&lt;font style=&quot;font-size: 16px&quot;&gt;监视&lt;/font&gt;" style="text;html=1;strokeColor=none;fillColor=none;align=center;verticalAlign=middle;whiteSpace=wrap;rounded=0;dashed=1;" vertex="1" parent="1">
          <mxGeometry x="350" y="220" width="90" height="30" as="geometry" />
        </mxCell>
        <mxCell id="kZivcypazWpZHnETLAVk-27" value="" style="group" vertex="1" connectable="0" parent="1">
          <mxGeometry x="81" y="910" width="226" height="120" as="geometry" />
        </mxCell>
        <mxCell id="kZivcypazWpZHnETLAVk-21" value="主节点" style="rounded=0;whiteSpace=wrap;html=1;sketch=0;fillColor=#d80073;strokeColor=#A50040;fontColor=#ffffff;" vertex="1" parent="kZivcypazWpZHnETLAVk-27">
          <mxGeometry x="67" width="86" height="36" as="geometry" />
        </mxCell>
        <mxCell id="kZivcypazWpZHnETLAVk-22" value="从节点" style="rounded=0;whiteSpace=wrap;html=1;sketch=0;fillColor=#008a00;strokeColor=#005700;fontColor=#ffffff;" vertex="1" parent="kZivcypazWpZHnETLAVk-27">
          <mxGeometry y="85" width="86" height="35" as="geometry" />
        </mxCell>
        <mxCell id="kZivcypazWpZHnETLAVk-25" style="edgeStyle=orthogonalEdgeStyle;rounded=0;orthogonalLoop=1;jettySize=auto;html=1;exitX=0.5;exitY=1;exitDx=0;exitDy=0;entryX=0.5;entryY=0;entryDx=0;entryDy=0;" edge="1" parent="kZivcypazWpZHnETLAVk-27" source="kZivcypazWpZHnETLAVk-21" target="kZivcypazWpZHnETLAVk-22">
          <mxGeometry relative="1" as="geometry" />
        </mxCell>
        <mxCell id="kZivcypazWpZHnETLAVk-24" value="从节点" style="rounded=0;whiteSpace=wrap;html=1;sketch=0;fillColor=#008a00;strokeColor=#005700;fontColor=#ffffff;" vertex="1" parent="kZivcypazWpZHnETLAVk-27">
          <mxGeometry x="140" y="85" width="86" height="35" as="geometry" />
        </mxCell>
        <mxCell id="kZivcypazWpZHnETLAVk-26" style="edgeStyle=orthogonalEdgeStyle;rounded=0;orthogonalLoop=1;jettySize=auto;html=1;" edge="1" parent="kZivcypazWpZHnETLAVk-27" source="kZivcypazWpZHnETLAVk-21" target="kZivcypazWpZHnETLAVk-24">
          <mxGeometry relative="1" as="geometry" />
        </mxCell>
        <mxCell id="kZivcypazWpZHnETLAVk-28" value="" style="group" vertex="1" connectable="0" parent="1">
          <mxGeometry x="381" y="910" width="226" height="120" as="geometry" />
        </mxCell>
        <mxCell id="kZivcypazWpZHnETLAVk-29" value="主节点" style="rounded=0;whiteSpace=wrap;html=1;sketch=0;fillColor=#d80073;strokeColor=#A50040;fontColor=#ffffff;" vertex="1" parent="kZivcypazWpZHnETLAVk-28">
          <mxGeometry x="67" width="86" height="36" as="geometry" />
        </mxCell>
        <mxCell id="kZivcypazWpZHnETLAVk-30" value="从节点" style="rounded=0;whiteSpace=wrap;html=1;sketch=0;fillColor=#008a00;strokeColor=#005700;fontColor=#ffffff;" vertex="1" parent="kZivcypazWpZHnETLAVk-28">
          <mxGeometry y="85" width="86" height="35" as="geometry" />
        </mxCell>
        <mxCell id="kZivcypazWpZHnETLAVk-31" style="edgeStyle=orthogonalEdgeStyle;rounded=0;orthogonalLoop=1;jettySize=auto;html=1;exitX=0.5;exitY=1;exitDx=0;exitDy=0;entryX=0.5;entryY=0;entryDx=0;entryDy=0;" edge="1" parent="kZivcypazWpZHnETLAVk-28" source="kZivcypazWpZHnETLAVk-29" target="kZivcypazWpZHnETLAVk-30">
          <mxGeometry relative="1" as="geometry" />
        </mxCell>
        <mxCell id="kZivcypazWpZHnETLAVk-32" value="从节点" style="rounded=0;whiteSpace=wrap;html=1;sketch=0;fillColor=#008a00;strokeColor=#005700;fontColor=#ffffff;" vertex="1" parent="kZivcypazWpZHnETLAVk-28">
          <mxGeometry x="140" y="85" width="86" height="35" as="geometry" />
        </mxCell>
        <mxCell id="kZivcypazWpZHnETLAVk-33" style="edgeStyle=orthogonalEdgeStyle;rounded=0;orthogonalLoop=1;jettySize=auto;html=1;" edge="1" parent="kZivcypazWpZHnETLAVk-28" source="kZivcypazWpZHnETLAVk-29" target="kZivcypazWpZHnETLAVk-32">
          <mxGeometry relative="1" as="geometry" />
        </mxCell>
        <mxCell id="kZivcypazWpZHnETLAVk-35" value="&lt;font style=&quot;font-size: 18px&quot;&gt;集群&lt;/font&gt;" style="text;html=1;strokeColor=none;fillColor=none;align=center;verticalAlign=middle;whiteSpace=wrap;rounded=0;dashed=1;sketch=0;" vertex="1" parent="1">
          <mxGeometry x="280" y="858" width="108" height="48" as="geometry" />
        </mxCell>
      </root>
    </mxGraphModel>
  </diagram>
</mxfile>
